<svg width="1200" height="1600" viewBox="0 0 1200 1600" fill="none" xmlns="http://www.w3.org/2000/svg">
  <rect width="1200" height="1600" fill="#0F0F0F"/>
  <rect x="80" y="80" width="1040" height="1440" rx="36" fill="#171717" stroke="#B8944A" stroke-width="4"/>
  <rect x="160" y="220" width="360" height="260" rx="24" fill="#1E1E1E"/>
  <rect x="560" y="220" width="480" height="320" rx="24" fill="#241A13"/>
  <rect x="160" y="520" width="480" height="360" rx="24" fill="#1A140D"/>
  <rect x="680" y="580" width="260" height="240" rx="20" fill="#2A2218"/>
  <rect x="970" y="620" width="70" height="200" rx="20" fill="#B8944A"/>
  <rect x="200" y="920" width="800" height="260" rx="28" fill="#0C0C0C" stroke="#B8944A" stroke-width="3"/>
  <rect x="240" y="960" width="240" height="180" rx="20" fill="#2B241C"/>
  <rect x="520" y="960" width="240" height="180" rx="20" fill="#2B241C"/>
  <rect x="800" y="960" width="180" height="180" rx="20" fill="#2B241C"/>
  <path d="M180 1380H1020" stroke="#B8944A" stroke-width="6" stroke-linecap="round"/>
  <rect x="180" y="1420" width="280" height="32" rx="16" fill="#B8944A" fill-opacity="0.8"/>
  <rect x="500" y="1420" width="200" height="32" rx="16" fill="#B8944A" fill-opacity="0.4"/>
</svg>